<svg width="20" height="18" viewBox="0 0 20 18" fill="none" xmlns="http://www.w3.org/2000/svg">
<path d="M2.37891 12.2L3.24493 12.7L2.37891 12.2ZM7.22865 3.80005L6.36262 3.30005L7.22865 3.80005ZM12.7715 3.80005L13.6375 3.30005L12.7715 3.80005ZM17.6212 12.2L18.4873 11.7L17.6212 12.2ZM9.18633 1.17285L9.59306 2.08639V2.08639L9.18633 1.17285ZM10.8135 1.17285L10.4067 2.08639L10.8135 1.17285ZM1.89649 16.618L1.3087 17.4271H1.3087L1.89649 16.618ZM1.08281 15.209L2.07734 15.1045L1.08281 15.209ZM18.1036 16.618L18.6914 17.4271L18.1036 16.618ZM18.9173 15.209L19.9118 15.3135L18.9173 15.209ZM10.0498 13H11.0498C11.0498 12.4477 10.6021 12 10.0498 12V13ZM10.0498 13.1L10.0496 14.1C10.3148 14.1001 10.5692 13.9947 10.7568 13.8072C10.9444 13.6196 11.0498 13.3653 11.0498 13.1H10.0498ZM9.9502 13.1H8.9502C8.9502 13.6522 9.39776 14.0998 9.94995 14.1L9.9502 13.1ZM9.9502 13V12C9.39791 12 8.9502 12.4477 8.9502 13H9.9502ZM11 6C11 5.44771 10.5523 5 10 5C9.44772 5 9 5.44771 9 6H11ZM9 10C9 10.5523 9.44772 11 10 11C10.5523 11 11 10.5523 11 10H9ZM14.8499 16H5.15039V18H14.8499V16ZM3.24493 12.7L8.09467 4.30005L6.36262 3.30005L1.51288 11.7L3.24493 12.7ZM11.9055 4.30005L16.7552 12.7L18.4873 11.7L13.6375 3.30005L11.9055 4.30005ZM8.09467 4.30005C8.55927 3.49534 8.87388 2.95235 9.14267 2.57183C9.41449 2.18704 9.54797 2.10647 9.59306 2.08639L8.77959 0.259303C8.23103 0.503537 7.84039 0.948972 7.50913 1.41791C7.17486 1.89111 6.80746 2.52957 6.36262 3.30005L8.09467 4.30005ZM13.6375 3.30005C13.1926 2.52949 12.8252 1.89105 12.4908 1.4178C12.1594 0.948842 11.7687 0.503499 11.2202 0.259303L10.4067 2.08639C10.4519 2.10651 10.5855 2.18717 10.8574 2.57194C11.1262 2.95242 11.4409 3.49541 11.9055 4.30005L13.6375 3.30005ZM9.59306 2.08639C9.85197 1.97112 10.1478 1.97112 10.4067 2.08639L11.2202 0.259303C10.4435 -0.0865157 9.55631 -0.0865155 8.77959 0.259303L9.59306 2.08639ZM5.15039 16C4.22124 16 3.59374 15.999 3.12987 15.9564C2.66083 15.9134 2.52428 15.8381 2.48427 15.809L1.3087 17.4271C1.79443 17.78 2.37539 17.8956 2.94715 17.9481C3.52409 18.001 4.26068 18 5.15039 18V16ZM1.51288 11.7C1.06801 12.4706 0.698868 13.108 0.456252 13.6341C0.21581 14.1555 0.0255368 14.7165 0.0882915 15.3135L2.07734 15.1045C2.07216 15.0553 2.07522 14.8993 2.27245 14.4716C2.4675 14.0486 2.78037 13.5047 3.24493 12.7L1.51288 11.7ZM2.48427 15.809C2.25484 15.6423 2.10694 15.3861 2.07734 15.1045L0.0882915 15.3135C0.177184 16.1593 0.621007 16.9274 1.3087 17.4271L2.48427 15.809ZM14.8499 18C15.7396 18 16.4761 18.001 17.0531 17.9481C17.6248 17.8956 18.2057 17.7799 18.6914 17.4271L17.5159 15.809C17.4758 15.8381 17.3393 15.9134 16.8703 15.9564C16.4065 15.999 15.779 16 14.8499 16V18ZM16.7552 12.7C17.2198 13.5047 17.5326 14.0486 17.7277 14.4716C17.9249 14.8993 17.928 15.0553 17.9228 15.1045L19.9118 15.3135C19.9746 14.7165 19.7843 14.1555 19.5439 13.6341C19.3013 13.108 18.9321 12.4706 18.4873 11.7L16.7552 12.7ZM18.6914 17.4271C19.3791 16.9274 19.8229 16.1593 19.9118 15.3135L17.9228 15.1045C17.8932 15.3861 17.7453 15.6423 17.5159 15.809L18.6914 17.4271ZM9.04981 13V13.1H11.0498V13H9.04981ZM10.0501 12.1L9.95045 12.1L9.94995 14.1L10.0496 14.1L10.0501 12.1ZM10.9502 13.1V13H8.9502V13.1H10.9502ZM9.9502 14H10.0498V12H9.9502V14ZM9 6V10H11V6H9Z" fill="white"/>
</svg>
