<svg width="20" height="20" viewBox="0 0 20 20" fill="none" xmlns="http://www.w3.org/2000/svg">
<path d="M11 9C11 8.44772 10.5523 8 10 8C9.44771 8 9 8.44772 9 9H11ZM9 14C9 14.5523 9.44771 15 10 15C10.5523 15 11 14.5523 11 14H9ZM10.0498 6H11.0498C11.0498 5.44772 10.6021 5 10.0498 5V6ZM10.0498 6.1L10.0496 7.1C10.3148 7.10006 10.5692 6.99474 10.7568 6.80719C10.9444 6.61965 11.0498 6.36526 11.0498 6.1H10.0498ZM9.9502 6.09998H8.9502C8.9502 6.65216 9.39776 7.09984 9.94995 7.09998L9.9502 6.09998ZM9.9502 6V5C9.39791 5 8.9502 5.44772 8.9502 6H9.9502ZM10 18C5.58172 18 2 14.4183 2 10H0C0 15.5228 4.47715 20 10 20V18ZM2 10C2 5.58172 5.58172 2 10 2V0C4.47715 0 0 4.47715 0 10H2ZM10 2C14.4183 2 18 5.58172 18 10H20C20 4.47715 15.5228 0 10 0V2ZM18 10C18 14.4183 14.4183 18 10 18V20C15.5228 20 20 15.5228 20 10H18ZM9 9V14H11V9H9ZM9.0498 6V6.1H11.0498V6H9.0498ZM10.05 5.1L9.95044 5.09998L9.94995 7.09998L10.0496 7.1L10.05 5.1ZM10.9502 6.09998V6H8.9502V6.09998H10.9502ZM9.9502 7H10.0498V5H9.9502V7Z" fill="white"/>
</svg>
